<svg width="208" height="28" viewBox="0 0 208 28" fill="none" xmlns="http://www.w3.org/2000/svg">
<path d="M50.64 24.74C50.64 25.54 50.36 26.22 49.8 26.78C49.24 27.34 48.56 27.62 47.76 27.62C46.96 27.62 46.28 27.34 45.72 26.78C45.16 26.22 44.88 25.54 44.88 24.74V11.66C44.88 10.02 44.78 9.20001 44.58 9.20001C44.42 9.20001 43.86 9.74001 42.9 10.82L29.7 25.82C29.18 26.42 28.54 26.88 27.78 27.2C27.02 27.48 26.2 27.62 25.32 27.62C24.44 27.62 23.62 27.48 22.86 27.2C22.1 26.88 21.46 26.42 20.94 25.82L7.74 10.82C6.82 9.74001 6.26 9.20001 6.06 9.20001C5.86 9.20001 5.76 10.02 5.76 11.66V24.74C5.76 25.54 5.48 26.22 4.92 26.78C4.36 27.34 3.68 27.62 2.88 27.62C2.08 27.62 1.4 27.34 0.84 26.78C0.28 26.22 0 25.54 0 24.74V7.22001C0 5.62001 0.46 4.26001 1.38 3.14001C2.3 2.02001 3.56 1.46001 5.16 1.46001C6.12 1.46001 6.98 1.70001 7.74 2.18001C8.5 2.66001 9.2 3.24001 9.84 3.92001L23.64 19.64C23.84 19.84 24.08 20.06 24.36 20.3C24.68 20.5 25 20.6 25.32 20.6C25.64 20.6 25.94 20.5 26.22 20.3C26.54 20.06 26.8 19.84 27 19.64L40.74 3.92001H40.8C41.36 3.16001 42.04 2.56001 42.84 2.12001C43.64 1.68001 44.52 1.46001 45.48 1.46001C47.08 1.46001 48.34 2.02001 49.26 3.14001C50.18 4.26001 50.64 5.62001 50.64 7.22001V24.74Z" fill="#383E47"/>
<path d="M61.7602 26.54C61.1602 27.26 60.4202 27.62 59.5402 27.62C58.7402 27.62 58.0602 27.34 57.5002 26.78C56.9402 26.22 56.6602 25.54 56.6602 24.74C56.6602 24.02 56.8602 23.44 57.2602 23L71.8402 3.38001C72.5202 2.46001 73.4202 1.72001 74.5402 1.16001C75.6602 0.560009 76.8602 0.26001 78.1402 0.26001C79.3402 0.26001 80.4802 0.520008 81.5602 1.04001C82.6402 1.56001 83.5202 2.28001 84.2002 3.20001L98.7802 22.7C99.0202 22.98 99.2202 23.3 99.3802 23.66C99.5402 23.98 99.6202 24.34 99.6202 24.74C99.6202 25.54 99.3402 26.22 98.7802 26.78C98.2202 27.34 97.5402 27.62 96.7402 27.62C95.7802 27.62 95.0202 27.24 94.4602 26.48L80.4802 7.82001C80.2002 7.50001 79.8402 7.16001 79.4002 6.80001C79.0002 6.40001 78.5802 6.20001 78.1402 6.20001C77.7002 6.20001 77.2602 6.40001 76.8202 6.80001C76.4202 7.16001 76.1002 7.50001 75.8602 7.82001L61.7602 26.54Z" fill="#383E47"/>
<path d="M144.225 17.42C145.305 18.1 146.405 18.84 147.525 19.64C148.645 20.4 149.785 21.24 150.945 22.16C151.385 22.48 151.765 22.86 152.085 23.3C152.405 23.7 152.565 24.18 152.565 24.74C152.565 25.54 152.285 26.22 151.725 26.78C151.165 27.34 150.485 27.62 149.685 27.62C149.005 27.62 148.325 27.34 147.645 26.78C146.005 25.58 144.325 24.42 142.605 23.3C140.885 22.18 139.085 21.18 137.205 20.3C135.365 19.42 133.445 18.72 131.445 18.2C129.445 17.68 127.365 17.42 125.205 17.42H113.265C112.745 17.5 112.305 17.74 111.945 18.14C111.585 18.54 111.405 19.04 111.405 19.64V24.74C111.405 25.54 111.105 26.22 110.505 26.78C109.945 27.34 109.285 27.62 108.525 27.62C107.725 27.62 107.045 27.34 106.485 26.78C105.925 26.22 105.645 25.54 105.645 24.74V18.98C105.645 17.98 105.825 17.04 106.185 16.16C106.585 15.24 107.105 14.46 107.745 13.82C108.385 13.14 109.145 12.62 110.025 12.26C110.905 11.86 111.865 11.66 112.905 11.66H144.705C145.305 11.66 145.825 11.46 146.265 11.06C146.745 10.62 146.985 10.08 146.985 9.44001C146.985 8.84001 146.745 8.32001 146.265 7.88001C145.825 7.44001 145.305 7.22001 144.705 7.22001H108.525C107.725 7.22001 107.045 6.94001 106.485 6.38001C105.925 5.82001 105.645 5.14001 105.645 4.34001C105.645 3.54001 105.925 2.86001 106.485 2.30001C107.045 1.74001 107.725 1.46001 108.525 1.46001H144.465C145.585 1.46001 146.625 1.68001 147.585 2.12001C148.585 2.52001 149.445 3.08001 150.165 3.80001C150.925 4.52001 151.505 5.36001 151.905 6.32001C152.345 7.28001 152.565 8.32001 152.565 9.44001C152.565 10.56 152.345 11.6 151.905 12.56C151.505 13.52 150.925 14.36 150.165 15.08C149.445 15.8 148.585 16.38 147.585 16.82C146.625 17.22 145.585 17.42 144.465 17.42H144.225Z" fill="#383E47"/>
<path d="M166.535 17.42C165.415 17.42 164.375 17.22 163.415 16.82C162.455 16.38 161.615 15.8 160.895 15.08C160.175 14.36 159.595 13.52 159.155 12.56C158.755 11.6 158.555 10.56 158.555 9.44001C158.555 8.32001 158.755 7.28001 159.155 6.32001C159.595 5.36001 160.175 4.52001 160.895 3.80001C161.615 3.08001 162.455 2.52001 163.415 2.12001C164.375 1.68001 165.415 1.46001 166.535 1.46001H202.955C203.755 1.46001 204.435 1.74001 204.995 2.30001C205.555 2.86001 205.835 3.54001 205.835 4.34001C205.835 5.14001 205.555 5.82001 204.995 6.38001C204.435 6.94001 203.755 7.22001 202.955 7.22001H166.415C165.815 7.22001 165.275 7.44001 164.795 7.88001C164.355 8.28001 164.135 8.80001 164.135 9.44001C164.135 10.04 164.355 10.56 164.795 11C165.275 11.44 165.815 11.66 166.415 11.66H199.595C200.715 11.66 201.755 11.88 202.715 12.32C203.715 12.72 204.575 13.28 205.295 14C206.015 14.72 206.575 15.58 206.975 16.58C207.415 17.54 207.635 18.58 207.635 19.7C207.635 20.82 207.415 21.86 206.975 22.82C206.575 23.78 206.015 24.62 205.295 25.34C204.575 26.06 203.715 26.62 202.715 27.02C201.755 27.42 200.715 27.62 199.595 27.62H163.235C162.435 27.62 161.755 27.34 161.195 26.78C160.635 26.22 160.355 25.54 160.355 24.74C160.355 23.94 160.635 23.26 161.195 22.7C161.755 22.14 162.435 21.86 163.235 21.86H199.835C200.435 21.86 200.955 21.66 201.395 21.26C201.835 20.82 202.055 20.3 202.055 19.7C202.055 19.06 201.835 18.52 201.395 18.08C200.955 17.64 200.435 17.42 199.835 17.42H166.535Z" fill="#383E47"/>
</svg>
